<svg width="25" height="25" viewBox="0 0 25 25" fill="none" xmlns="http://www.w3.org/2000/svg">
<path fill-rule="evenodd" clip-rule="evenodd" d="M7.70853 1.10087C8.91978 1.04511 9.30597 1.03271 12.3914 1.03271C15.4768 1.03271 15.863 1.04614 17.0733 1.10087C18.2835 1.1556 19.1096 1.34869 19.8324 1.62853C20.5893 1.91456 21.276 2.36168 21.8439 2.93994C22.4222 3.50684 22.8683 4.1925 23.1533 4.95043C23.4341 5.67326 23.6262 6.49934 23.682 7.7075C23.7377 8.92081 23.7501 9.30701 23.7501 12.3914C23.7501 15.4768 23.7367 15.863 23.682 17.0743C23.6272 18.2824 23.4341 19.1085 23.1533 19.8314C22.8682 20.5894 22.4214 21.2762 21.8439 21.8439C21.276 22.4222 20.5893 22.8683 19.8324 23.1533C19.1096 23.4341 18.2835 23.6262 17.0753 23.6819C15.863 23.7377 15.4768 23.7501 12.3914 23.7501C9.30597 23.7501 8.91978 23.7367 7.70853 23.6819C6.50038 23.6272 5.67429 23.4341 4.95146 23.1533C4.19345 22.8682 3.50666 22.4214 2.93891 21.8439C2.36104 21.2767 1.91386 20.5902 1.62853 19.8324C1.34869 19.1096 1.15663 18.2835 1.10087 17.0753C1.04511 15.862 1.03271 15.4758 1.03271 12.3914C1.03271 9.30597 1.04614 8.91978 1.10087 7.70956C1.1556 6.49934 1.34869 5.67326 1.62853 4.95043C1.91428 4.19258 2.3618 3.50614 2.93994 2.93891C3.50689 2.36117 4.19298 1.91399 4.95043 1.62853C5.67326 1.34869 6.49935 1.15663 7.7075 1.10087H7.70853ZM16.9814 3.14543C15.7835 3.0907 15.4242 3.07934 12.3914 3.07934C9.35864 3.07934 8.99929 3.0907 7.80146 3.14543C6.69348 3.19603 6.0925 3.38087 5.69184 3.53679C5.16212 3.74331 4.78315 3.98804 4.3856 4.38559C4.00874 4.75222 3.71872 5.19855 3.53679 5.69184C3.38087 6.0925 3.19603 6.69347 3.14543 7.80146C3.0907 8.99929 3.07935 9.35864 3.07935 12.3914C3.07935 15.4242 3.0907 15.7835 3.14543 16.9814C3.19603 18.0893 3.38087 18.6903 3.53679 19.091C3.71853 19.5835 4.00869 20.0306 4.3856 20.3972C4.75217 20.7741 5.19929 21.0643 5.69184 21.246C6.0925 21.402 6.69348 21.5868 7.80146 21.6374C8.99929 21.6921 9.35761 21.7035 12.3914 21.7035C15.4252 21.7035 15.7835 21.6921 16.9814 21.6374C18.0893 21.5868 18.6903 21.402 19.091 21.246C19.6207 21.0395 19.9997 20.7948 20.3972 20.3972C20.7741 20.0306 21.0643 19.5835 21.246 19.091C21.402 18.6903 21.5868 18.0893 21.6374 16.9814C21.6921 15.7835 21.7035 15.4242 21.7035 12.3914C21.7035 9.35864 21.6921 8.99929 21.6374 7.80146C21.5868 6.69347 21.402 6.0925 21.246 5.69184C21.0395 5.16212 20.7948 4.78315 20.3972 4.38559C20.0306 4.00877 19.5843 3.71875 19.091 3.53679C18.6903 3.38087 18.0893 3.19603 16.9814 3.14543ZM10.9406 15.893C11.7508 16.2303 12.6531 16.2758 13.4931 16.0218C14.3332 15.7678 15.059 15.23 15.5467 14.5002C16.0343 13.7705 16.2534 12.8942 16.1667 12.0208C16.0799 11.1475 15.6927 10.3313 15.071 9.71179C14.6748 9.31576 14.1956 9.01252 13.6681 8.8239C13.1405 8.63528 12.5777 8.56597 12.0202 8.62096C11.4626 8.67595 10.9242 8.85387 10.4437 9.14192C9.96318 9.42997 9.5525 9.82098 9.24123 10.2868C8.92996 10.7526 8.72584 11.2817 8.64357 11.8358C8.5613 12.39 8.60292 12.9555 8.76545 13.4917C8.92797 14.0278 9.20734 14.5213 9.58346 14.9365C9.95958 15.3517 10.4231 15.6784 10.9406 15.893ZM8.26304 8.26304C8.80519 7.72089 9.44881 7.29084 10.1572 6.99743C10.8655 6.70403 11.6247 6.55301 12.3914 6.55301C13.1581 6.55301 13.9173 6.70403 14.6257 6.99743C15.334 7.29084 15.9776 7.72089 16.5198 8.26304C17.0619 8.80518 17.492 9.4488 17.7854 10.1572C18.0788 10.8655 18.2298 11.6247 18.2298 12.3914C18.2298 13.1581 18.0788 13.9173 17.7854 14.6257C17.492 15.334 17.0619 15.9776 16.5198 16.5198C15.4249 17.6147 13.9398 18.2298 12.3914 18.2298C10.843 18.2298 9.35795 17.6147 8.26304 16.5198C7.16813 15.4249 6.55301 13.9398 6.55301 12.3914C6.55301 10.843 7.16813 9.35795 8.26304 8.26304ZM19.5247 7.4225C19.659 7.29576 19.7666 7.14336 19.841 6.97432C19.9154 6.80527 19.9551 6.62302 19.9578 6.43835C19.9605 6.25368 19.9261 6.07034 19.8566 5.8992C19.7872 5.72806 19.6841 5.57259 19.5535 5.44199C19.4229 5.3114 19.2675 5.20833 19.0963 5.1389C18.9252 5.06947 18.7419 5.03508 18.5572 5.03777C18.3725 5.04046 18.1903 5.08018 18.0212 5.15457C17.8522 5.22897 17.6998 5.33652 17.573 5.47087C17.3266 5.73215 17.1916 6.0792 17.1969 6.43835C17.2021 6.7975 17.3471 7.14047 17.6011 7.39445C17.8551 7.64844 18.198 7.79344 18.5572 7.79867C18.9163 7.80391 19.2634 7.66897 19.5247 7.4225Z" fill="#E84343"/>
</svg>
