<svg width="26" height="25" viewBox="0 0 26 25" fill="none" xmlns="http://www.w3.org/2000/svg">
<path d="M20.9947 6.90607C21.9204 6.35269 22.613 5.48132 22.9433 4.45466C22.0734 4.97078 21.1218 5.33433 20.1294 5.5296C19.4601 4.8216 18.5765 4.35338 17.6148 4.19713C16.6531 4.04088 15.6668 4.20527 14.8077 4.66495C13.9487 5.12464 13.2647 5.85411 12.8612 6.74092C12.4577 7.62772 12.3571 8.62262 12.5748 9.57227C10.8131 9.48382 9.08962 9.02589 7.51631 8.22821C5.943 7.43052 4.55501 6.31091 3.44244 4.94205C2.87664 5.91797 2.7035 7.07266 2.9582 8.17161C3.21289 9.27056 3.87632 10.2314 4.81375 10.8589C4.11024 10.8363 3.42234 10.6458 2.80739 10.3034V10.3591C2.80759 11.3824 3.16171 12.3741 3.8097 13.1661C4.4577 13.9581 5.35967 14.5015 6.36266 14.7043C5.71012 14.8819 5.02565 14.908 4.36146 14.7807C4.64515 15.6609 5.19654 16.4304 5.93868 16.9821C6.68081 17.5337 7.57666 17.8399 8.50119 17.8579C6.93145 19.09 4.99288 19.7581 2.99739 19.7548C2.6432 19.7548 2.29005 19.7342 1.93896 19.6939C3.96537 20.996 6.32381 21.6871 8.7325 21.6848C10.3915 21.6962 12.0362 21.3778 13.5711 20.7481C15.106 20.1185 16.5005 19.1901 17.6736 18.017C18.8466 16.8438 19.7749 15.4492 20.4044 13.9143C21.0339 12.3793 21.3522 10.7346 21.3406 9.07558C21.3406 8.88352 21.3365 8.69249 21.3272 8.50249C22.1951 7.8753 22.9441 7.0983 23.5391 6.20803C22.7305 6.56639 21.8729 6.80168 20.9947 6.90607Z" fill="#E84343"/>
</svg>
