<svg width="47" height="47" viewBox="0 0 47 47" fill="none" xmlns="http://www.w3.org/2000/svg">
<path fill-rule="evenodd" clip-rule="evenodd" d="M36.0392 11.0313C34.4106 9.392 32.4728 8.09212 30.3382 7.20701C28.2036 6.32191 25.9146 5.86918 23.6038 5.87506C13.914 5.87506 6.02579 13.7613 6.02188 23.455C6.02188 26.5531 6.83067 29.5768 8.36796 32.244L5.875 41.3522L15.1947 38.9063C17.7726 40.3096 20.6608 41.0454 23.596 41.0467H23.6038C33.2917 41.0467 41.1798 33.1605 41.1838 23.4668C41.1904 21.1569 40.7392 18.8686 39.8562 16.7341C38.9731 14.5997 37.6758 12.6614 36.0392 11.0313ZM23.6038 38.0798H23.5979C20.9806 38.0801 18.4115 37.3759 16.1602 36.0412L15.6275 35.724L10.0972 37.1751L11.5718 31.7838L11.2252 31.2316C9.76188 28.902 8.98725 26.206 8.99071 23.455C8.99463 15.3984 15.5492 8.84389 23.6097 8.84389C25.5293 8.83962 27.4308 9.21613 29.2039 9.95162C30.9771 10.6871 32.5868 11.767 33.9399 13.1287C35.3002 14.484 36.3784 16.0954 37.1122 17.8698C37.8459 19.6443 38.2207 21.5466 38.2149 23.4668C38.211 31.5233 31.6565 38.0798 23.6038 38.0798ZM31.6193 27.1347C31.1786 26.9134 29.0205 25.852 28.6171 25.7051C28.2157 25.5583 27.9239 25.4858 27.6301 25.9245C27.3364 26.3631 26.4943 27.3521 26.2377 27.6458C25.9812 27.9396 25.7247 27.9748 25.286 27.7555C24.8473 27.5362 23.4315 27.0721 21.7532 25.5759C20.447 24.4107 19.5657 22.9733 19.3092 22.5326C19.0526 22.092 19.2817 21.8551 19.503 21.6357C19.7008 21.4399 19.9417 21.1226 20.161 20.8661C20.3804 20.6096 20.4528 20.4274 20.5997 20.1337C20.7466 19.8399 20.6741 19.5834 20.5625 19.3641C20.4528 19.1428 19.5735 16.9808 19.2073 16.1015C18.8529 15.2496 18.4906 15.3632 18.2203 15.3514C17.9404 15.34 17.6603 15.3348 17.3802 15.3358C17.1575 15.3414 16.9383 15.3931 16.7364 15.4874C16.5346 15.5818 16.3544 15.7168 16.2072 15.8841C15.8038 16.3247 14.6699 17.3861 14.6699 19.5481C14.6699 21.7101 16.2444 23.7997 16.4637 24.0934C16.683 24.3872 19.5618 28.8228 23.968 30.7263C25.0177 31.1787 25.8363 31.4489 26.4727 31.6526C27.5244 31.9875 28.482 31.9385 29.2399 31.8269C30.0839 31.7016 31.8386 30.7655 32.2048 29.7393C32.571 28.7131 32.571 27.8338 32.4613 27.6498C32.3517 27.4657 32.056 27.3541 31.6193 27.1347Z" fill="white"/>
</svg>
