<svg width="180" height="22" viewBox="0 0 180 22" fill="none" xmlns="http://www.w3.org/2000/svg">
<g clip-path="url(#clip0)">
<path d="M179.617 5.7158L179.232 4.68626C178.042 1.56594 174.471 -0.239731 170.953 0.488872L155.008 3.62503L135.212 2.31038L128.054 4.52786H135.527L155.183 5.84252L171.478 2.643C173.404 2.24702 175.364 2.99146 176.414 4.43283L128.631 19.2108C128.194 19.3533 127.704 19.2108 127.423 18.8782L123.905 14.7283L127.914 13.4928C129.629 14.9184 132.132 15.2827 134.285 14.3482L148.147 8.29759H142.598L133.252 12.3841C131.852 13.0018 130.189 12.6534 129.209 11.5605L128.684 10.9586L119.95 13.6671L125.516 20.2245C126.198 21.0165 127.213 21.46 128.281 21.46C128.649 21.46 129.034 21.3966 129.401 21.2857L156.443 12.9226L154.098 18.0704L147.027 20.2562H154.483L155.901 19.8127L159.471 11.9881L179.617 5.7158Z" fill="#E84343"/>
<path d="M0 7.2525V8.97897H5.12835V20.1456H7.71879V8.97897H12.8471V7.2525H0Z" fill="#16253E"/>
<path d="M15.9453 20.1456V7.2525H20.9686C24.9243 7.2525 27.3222 8.63051 27.3222 11.0856C27.3222 12.8279 26.1145 14.0317 23.9441 14.586L27.5672 20.1614H24.7143L21.3012 14.9345H18.5357V20.1614H15.9453V20.1456ZM18.5357 8.97897V13.1605H21.1962C23.4191 13.1605 24.6093 12.4319 24.6093 11.0697C24.6093 9.70758 23.4191 8.97897 21.1962 8.97897H18.5357Z" fill="#16253E"/>
<path d="M29.5098 20.1456L34.7431 7.2525H39.679L44.8773 20.1456H42.2344L40.7641 16.5184H33.623L32.1527 20.1456H29.5098ZM34.3231 14.7603H40.064L37.1935 7.66432L34.3231 14.7603Z" fill="#16253E"/>
<path d="M50.4961 20.1456L45.2627 7.2525H47.9231L52.9465 19.7338L57.9873 7.2525H60.6302L55.4144 20.1456H50.4961Z" fill="#16253E"/>
<path d="M63.5879 20.1456V7.2525H73.022V8.97897H66.1783V12.6537H72.8119V14.3801H66.1783V18.4033H73.197V20.1456H63.5879Z" fill="#16253E"/>
<path d="M77.2578 20.1456V7.2525H79.8482V18.4033H86.7444V20.1456H77.2578Z" fill="#16253E"/>
<path d="M95.2857 20.3357C91.4526 20.3357 89.1597 18.5934 89.1597 15.0295V7.2525H91.7501V15.2671C91.7501 17.5163 93.0803 18.5934 95.2857 18.5934C97.4911 18.5934 98.7863 17.5163 98.7863 15.2671V7.2525H101.377V15.0295C101.394 18.5934 99.1014 20.3357 95.2857 20.3357Z" fill="#16253E"/>
<path d="M104.002 20.1456L109.848 13.2714L104.703 7.2525H107.731L111.494 11.6558L115.222 7.2525H118.232L113.121 13.2872L118.95 20.1456H115.939L111.476 14.887L107.013 20.1456H104.002Z" fill="#16253E"/>
</g>
<defs>
<clipPath id="clip0">
<rect width="180" height="21.082" fill="white" transform="translate(0 0.33075)"/>
</clipPath>
</defs>
</svg>
