<svg width="59" height="59" viewBox="0 0 59 59" fill="none" xmlns="http://www.w3.org/2000/svg">
<path d="M29.4998 0C28.8508 0 28.2091 0.0221252 27.5712 0.062688L27.8072 3.74284C28.9344 3.66999 30.0651 3.66999 31.1923 3.74284L31.4283 0.062688C30.7863 0.0210603 30.1431 0.000153445 29.4998 0V0ZM23.7472 0.560504C22.4713 0.814944 21.225 1.15051 20.0154 1.55614L21.1991 5.05191C22.2575 4.69054 23.3453 4.39922 24.4589 4.17797L23.7472 0.564192V0.560504ZM38.9841 1.55982C37.7646 1.14639 36.5192 0.813793 35.256 0.564192L34.5406 4.17797C35.6543 4.39922 36.7421 4.69422 37.8004 5.05191L38.9841 1.55982ZM45.8908 4.97079C44.8206 4.25447 43.7046 3.609 42.5499 3.03852L40.9164 6.34255C41.9304 6.84405 42.9076 7.41193 43.8406 8.03512L45.8908 4.97079ZM16.4459 3.03852C15.288 3.61009 14.1744 4.25541 13.1087 4.97079L15.159 8.03144C16.0962 7.40587 17.073 6.84173 18.0832 6.34255L16.4459 3.03852ZM10.0481 7.31974C9.08192 8.16788 8.16742 9.08238 7.31928 10.0485L10.0923 12.4823C10.8372 11.6342 11.6337 10.8376 12.4818 10.0928L10.0481 7.31974ZM51.6803 10.0485C50.8308 9.08076 49.9192 8.16925 48.9515 7.31974L46.5177 10.0928C47.3658 10.8376 48.166 11.6342 48.9072 12.4823L51.6803 10.0485ZM55.9615 16.4464C55.391 15.2929 54.7456 14.1781 54.0292 13.1092L50.9686 15.1594C51.5918 16.0924 52.1559 17.0696 52.6575 18.0836L55.9615 16.4501V16.4464ZM4.97033 13.1092C4.25495 14.1749 3.60594 15.2885 3.03806 16.4501L6.34209 18.0836C6.84359 17.0696 7.41147 16.0924 8.03466 15.1594L4.97033 13.1092ZM1.55936 20.0159C1.14592 21.2354 0.813321 22.4808 0.563731 23.744L4.17751 24.4594C4.39876 23.3457 4.69376 22.2579 5.05145 21.1996L1.55936 20.0159ZM58.4395 23.7477C58.1901 22.4832 57.8575 21.2366 57.4439 20.0159L53.9481 21.1996C54.3095 22.2579 54.6008 23.3457 54.822 24.4594L58.4358 23.744L58.4395 23.7477ZM0.0622271 27.5717C-0.0207424 28.856 -0.0207424 30.1444 0.0622271 31.4288L3.74238 31.1928C3.66953 30.0656 3.66953 28.9349 3.74238 27.8077L0.0622271 27.5717ZM59 29.5002C58.9999 28.8569 58.979 28.2137 58.9373 27.5717L55.2572 27.8077C55.3301 28.9349 55.3301 30.0656 55.2572 31.1928L58.9373 31.4288C58.979 30.7868 58.9999 30.1436 59 29.5002ZM0.560043 35.2528C0.814483 36.5287 1.15005 37.775 1.55568 38.9846L5.05145 37.8009C4.68877 36.7347 4.39682 35.6457 4.17751 34.5411L0.563731 35.2565L0.560043 35.2528ZM57.4402 38.9846C57.8532 37.775 58.1851 36.5287 58.4358 35.2565L54.822 34.5411C54.6008 35.6547 54.3058 36.7425 53.9481 37.8009L57.4402 38.9846ZM3.03806 42.5541C3.60868 43.7074 4.25414 44.8222 4.97033 45.8913L8.03098 43.841C7.40478 42.9042 6.84061 41.9274 6.34209 40.9168L3.03806 42.5504V42.5541ZM54.0292 45.8913C54.7446 44.8256 55.3936 43.712 55.9615 42.5504L52.6575 40.9168C52.1559 41.9309 51.5881 42.9081 50.9649 43.841L54.0292 45.8913ZM7.31928 48.9519C8.16742 49.9181 9.08192 50.8326 10.0481 51.6807L12.4818 48.9077C11.6343 48.1639 10.8361 47.3657 10.0923 46.5182L7.31928 48.9519ZM48.9515 51.6807C49.9176 50.8326 50.8321 49.9181 51.6803 48.9519L48.9072 46.5182C48.166 47.3663 47.3658 48.1665 46.5177 48.9077L48.9515 51.6807ZM42.5536 55.9619C43.7115 55.3904 44.8251 54.7451 45.8908 54.0297L43.8406 50.969C42.9034 51.5946 41.9266 52.1587 40.9164 52.6579L42.5499 55.9619H42.5536ZM13.1087 54.0297C14.1744 54.7451 15.288 55.3941 16.4496 55.9619L18.0832 52.6579C17.0725 52.1582 16.0957 51.5928 15.159 50.9653L13.1087 54.0297ZM20.0154 57.4406C21.225 57.8536 22.4713 58.1855 23.7435 58.4363L24.4589 54.8225C23.3543 54.6031 22.2654 54.3111 21.1991 53.9485L20.0154 57.4406ZM35.2523 58.44C36.5168 58.1905 37.7634 57.8579 38.9841 57.4443L37.8004 53.9485C36.7342 54.3111 35.6452 54.6031 34.5406 54.8225L35.256 58.4363L35.2523 58.44ZM27.5712 58.9378C28.8556 59.0209 30.144 59.0209 31.4283 58.9378L31.1923 55.2576C30.0651 55.3305 28.9344 55.3305 27.8072 55.2576L27.5712 58.9378ZM31.3435 16.5939C31.3435 16.1049 31.1493 15.6359 30.8035 15.2901C30.4577 14.9444 29.9888 14.7501 29.4998 14.7501C29.0108 14.7501 28.5418 14.9444 28.196 15.2901C27.8503 15.6359 27.656 16.1049 27.656 16.5939V27.6565H16.5934C16.1044 27.6565 15.6355 27.8507 15.2897 28.1965C14.9439 28.5423 14.7497 29.0112 14.7497 29.5002C14.7497 29.9892 14.9439 30.4582 15.2897 30.804C15.6355 31.1497 16.1044 31.344 16.5934 31.344H27.656V42.4066C27.656 42.8956 27.8503 43.3645 28.196 43.7103C28.5418 44.0561 29.0108 44.2503 29.4998 44.2503C29.9888 44.2503 30.4577 44.0561 30.8035 43.7103C31.1493 43.3645 31.3435 42.8956 31.3435 42.4066V31.344H42.4061C42.8951 31.344 43.3641 31.1497 43.7099 30.804C44.0556 30.4582 44.2499 29.9892 44.2499 29.5002C44.2499 29.0112 44.0556 28.5423 43.7099 28.1965C43.3641 27.8507 42.8951 27.6565 42.4061 27.6565H31.3435V16.5939Z" fill="black"/>
</svg>
