<svg width="25" height="24" viewBox="0 0 25 24" fill="none" xmlns="http://www.w3.org/2000/svg">
<g clip-path="url(#clip0)">
<path d="M22.184 3.97901H16.678V2.53901C16.677 1.86533 16.409 1.21952 15.9327 0.743065C15.4564 0.266605 14.8107 -0.00166853 14.137 -0.00299072H10.75C10.0764 -0.0019336 9.43056 0.266086 8.9541 0.742358C8.47764 1.21863 8.20937 1.86433 8.20805 2.53801V3.97801H2.70205C1.98481 3.97827 1.29704 4.26338 0.78997 4.77064C0.2829 5.2779 -0.00195299 5.96577 -0.00195294 6.68301V19.943C-0.00208435 20.2977 0.0676894 20.649 0.203381 20.9768C0.339072 21.3046 0.538021 21.6024 0.788859 21.8532C1.0397 22.104 1.3375 22.303 1.66526 22.4387C1.99302 22.5744 2.34431 22.6441 2.69905 22.644H3.49505C3.48103 22.8309 3.50579 23.0186 3.56775 23.1954C3.62971 23.3723 3.72755 23.5344 3.85512 23.6716C3.98269 23.8089 4.13725 23.9183 4.30909 23.993C4.48094 24.0677 4.66637 24.1061 4.85375 24.1057C5.04112 24.1054 5.22641 24.0663 5.39798 23.991C5.56955 23.9156 5.7237 23.8057 5.85077 23.668C5.97783 23.5302 6.07507 23.3678 6.13638 23.1907C6.19769 23.0136 6.22175 22.8258 6.20705 22.639V22.644H18.663C18.663 23.0036 18.8059 23.3485 19.0602 23.6028C19.3145 23.8571 19.6594 24 20.019 24C20.3787 24 20.7236 23.8571 20.9779 23.6028C21.2322 23.3485 21.375 23.0036 21.375 22.644H22.171C22.5258 22.6441 22.8771 22.5744 23.2048 22.4387C23.5326 22.303 23.8304 22.104 24.0812 21.8532C24.3321 21.6024 24.531 21.3046 24.6667 20.9768C24.8024 20.649 24.8722 20.2977 24.872 19.943V6.68301V6.66101C24.872 5.94943 24.5894 5.267 24.0862 4.76384C23.5831 4.26068 22.9006 3.97801 22.189 3.97801H22.182L22.184 3.97901ZM10.099 2.53901C10.099 2.17901 10.391 1.88701 10.751 1.88701H14.137C14.497 1.88701 14.789 2.17901 14.789 2.53901V3.97901H10.106V2.53901H10.099ZM5.57205 19.759H5.57105C5.13573 19.759 4.71019 19.6299 4.34824 19.3881C3.98628 19.1462 3.70418 18.8025 3.53759 18.4003C3.371 17.9981 3.32741 17.5556 3.41234 17.1286C3.49726 16.7017 3.70689 16.3095 4.0147 16.0017C4.32252 15.6939 4.7147 15.4842 5.14165 15.3993C5.56861 15.3144 6.01115 15.358 6.41333 15.5246C6.81551 15.6911 7.15926 15.9732 7.40111 16.3352C7.64296 16.6972 7.77205 17.1227 7.77205 17.558V17.559C7.77205 18.774 6.78705 19.759 5.57205 19.76V19.759ZM9.15105 10.879L10.591 7.01201L14.458 8.45201L13.018 12.32L9.15105 10.879ZM15.391 19.215L14.435 15.91L21.704 13.813L22.66 17.118L15.391 19.215Z" fill="black"/>
</g>
<defs>
<clipPath id="clip0">
<rect width="25" height="24" fill="white"/>
</clipPath>
</defs>
</svg>
