<svg width="36" height="36" viewBox="0 0 36 36" fill="none" xmlns="http://www.w3.org/2000/svg">
<path d="M23.4301 16.83C23.2431 16.6404 22.9885 16.5328 22.7221 16.5309C22.4558 16.529 22.1997 16.633 22.0101 16.82C21.8204 17.007 21.7129 17.2616 21.711 17.5279C21.7091 17.7942 21.8131 18.0504 22.0001 18.24L25.7201 22H7.83008C7.56486 22 7.31051 22.1054 7.12297 22.2929C6.93544 22.4804 6.83008 22.7348 6.83008 23C6.83008 23.2652 6.93544 23.5196 7.12297 23.7071C7.31051 23.8946 7.56486 24 7.83008 24H25.7201L22.0001 27.7C21.9075 27.7932 21.8342 27.9038 21.7843 28.0254C21.7345 28.1469 21.7091 28.2771 21.7095 28.4085C21.71 28.5399 21.7363 28.6699 21.787 28.7912C21.8378 28.9124 21.9118 29.0224 22.0051 29.115C22.0983 29.2076 22.2089 29.2809 22.3304 29.3307C22.452 29.3806 22.5822 29.406 22.7136 29.4056C22.845 29.4051 22.975 29.3788 23.0962 29.328C23.2175 29.2773 23.3275 29.2032 23.4201 29.11L29.5301 23L23.4301 16.83Z" fill="black"/>
<path d="M13.2399 18.45C13.4385 18.4512 13.633 18.3931 13.7985 18.2833C13.9641 18.1735 14.0931 18.0169 14.1693 17.8335C14.2455 17.6501 14.2653 17.4481 14.2262 17.2533C14.1871 17.0586 14.091 16.8799 13.9499 16.74L10.2399 13H28.1199C28.3851 13 28.6395 12.8947 28.827 12.7071C29.0146 12.5196 29.1199 12.2652 29.1199 12C29.1199 11.7348 29.0146 11.4804 28.827 11.2929C28.6395 11.1054 28.3851 11 28.1199 11H10.2399L13.9499 7.27002C14.0425 7.17678 14.1158 7.06622 14.1657 6.94464C14.2155 6.82307 14.2409 6.69287 14.2405 6.56148C14.24 6.43008 14.2137 6.30007 14.163 6.17885C14.1123 6.05764 14.0382 5.9476 13.9449 5.85502C13.8517 5.76243 13.7411 5.68912 13.6196 5.63927C13.498 5.58942 13.3678 5.564 13.2364 5.56446C12.971 5.5654 12.7169 5.67171 12.5299 5.86002L6.41992 12L12.5299 18.14C12.6217 18.2363 12.7318 18.3133 12.8537 18.3666C12.9756 18.4198 13.1069 18.4482 13.2399 18.45Z" fill="black"/>
</svg>
