<svg width="38" height="38" viewBox="0 0 38 38" fill="none" xmlns="http://www.w3.org/2000/svg">
<path d="M11.8748 22.1667C14.061 22.1667 15.8332 20.3945 15.8332 18.2083C15.8332 16.0222 14.061 14.25 11.8748 14.25C9.68871 14.25 7.9165 16.0222 7.9165 18.2083C7.9165 20.3945 9.68871 22.1667 11.8748 22.1667Z" fill="black"/>
<path d="M27.2411 11.0833H18.9998C18.5799 11.0833 18.1772 11.2501 17.8803 11.5471C17.5833 11.844 17.4165 12.2467 17.4165 12.6667V23.75H6.33317V9.5H3.1665V31.6667H6.33317V26.9167H31.6665V31.6667H34.8332V18.6754C34.8311 16.6625 34.0305 14.7327 32.6072 13.3093C31.1838 11.886 29.254 11.0854 27.2411 11.0833ZM20.5832 23.75V14.25H27.2411C28.4144 14.2513 29.5393 14.7179 30.3689 15.5476C31.1986 16.3772 31.6652 17.5021 31.6665 18.6754V23.75H20.5832Z" fill="black"/>
</svg>
