<svg width="37" height="38" viewBox="0 0 37 38" fill="none" xmlns="http://www.w3.org/2000/svg">
<path d="M3.0835 11.0834C3.0835 10.2435 3.40835 9.43805 3.98658 8.84418C4.56482 8.25032 5.34908 7.91669 6.16683 7.91669H30.8335C31.6513 7.91669 32.4355 8.25032 33.0137 8.84418C33.592 9.43805 33.9168 10.2435 33.9168 11.0834V26.9167C33.9168 27.7565 33.592 28.562 33.0137 29.1559C32.4355 29.7497 31.6513 30.0834 30.8335 30.0834H6.16683C5.34908 30.0834 4.56482 29.7497 3.98658 29.1559C3.40835 28.562 3.0835 27.7565 3.0835 26.9167V11.0834Z" stroke="black" stroke-width="2" stroke-linecap="round" stroke-linejoin="round"/>
<path d="M18.5 23.75C21.0543 23.75 23.125 21.6234 23.125 19C23.125 16.3766 21.0543 14.25 18.5 14.25C15.9457 14.25 13.875 16.3766 13.875 19C13.875 21.6234 15.9457 23.75 18.5 23.75Z" stroke="black" stroke-width="2" stroke-linecap="round" stroke-linejoin="round"/>
<path d="M3.0835 14.25C4.719 14.25 6.28751 13.5828 7.44399 12.395C8.60046 11.2073 9.25016 9.59639 9.25016 7.91669" stroke="black" stroke-width="2" stroke-linecap="round" stroke-linejoin="round"/>
<path d="M27.75 30.0833C27.75 28.4036 28.3997 26.7927 29.5562 25.605C30.7127 24.4173 32.2812 23.75 33.9167 23.75" stroke="black" stroke-width="2" stroke-linecap="round" stroke-linejoin="round"/>
</svg>
