<svg width="25" height="29" viewBox="0 0 25 29" fill="none" xmlns="http://www.w3.org/2000/svg">
<path d="M12.5003 14.5C16.0672 14.5 18.9587 11.6085 18.9587 8.04165C18.9587 4.47481 16.0672 1.58331 12.5003 1.58331C8.93349 1.58331 6.04199 4.47481 6.04199 8.04165C6.04199 11.6085 8.93349 14.5 12.5003 14.5Z" stroke="black" stroke-width="2"/>
<path d="M18.9586 17.0833H19.4132C20.3576 17.0836 21.2693 17.4287 21.9771 18.0537C22.6849 18.6788 23.1401 19.5408 23.2572 20.4778L23.7623 24.513C23.8077 24.8765 23.7753 25.2455 23.6672 25.5955C23.5591 25.9456 23.3778 26.2686 23.1353 26.5432C22.8929 26.8178 22.5948 27.0377 22.2608 27.1883C21.9268 27.3389 21.5647 27.4167 21.1983 27.4166H3.80216C3.43582 27.4167 3.07365 27.3389 2.73969 27.1883C2.40573 27.0377 2.10762 26.8178 1.86514 26.5432C1.62266 26.2686 1.44136 25.9456 1.33327 25.5955C1.22518 25.2455 1.19277 24.8765 1.2382 24.513L1.74195 20.4778C1.8591 19.5404 2.31469 18.678 3.02307 18.0529C3.73144 17.4277 4.64378 17.083 5.58853 17.0833H6.04191" stroke="black" stroke-width="2" stroke-linecap="round" stroke-linejoin="round"/>
</svg>
